<?xml version="1.0" encoding="UTF-8"?>
<svg id="Layer_1" xmlns="http://www.w3.org/2000/svg" version="1.1" viewBox="0 0 26 26">
  <!-- Generator: Adobe Illustrator 29.0.0, SVG Export Plug-In . SVG Version: 2.1.0 Build 186)  -->
  <defs>
    <style>
      .st0 {
        fill: #2d4598;
        stroke: #fff;
        stroke-miterlimit: 10;
        stroke-width: .2px;
      }
    </style>
  </defs>
  <path class="st0" d="M9.8,2.6c.6,0,1.1.5,1.1,1.1s-.5,1.1-1.1,1.1c-.6,0-1.1-.5-1.1-1.1s.5-1.1,1.1-1.1ZM12.9.8c-1,0-1.9,0-2.7.2-2.4.4-2.8,1.3-2.8,3v2.2h5.6v.7h-7.7c-1.6,0-3.1,1-3.5,3-.5,2.2-.5,3.6,0,5.9.4,1.7,1.3,3,3,3h1.9v-2.7c0-1.9,1.6-3.6,3.5-3.6h5.6c1.6,0,2.8-1.3,2.8-3v-5.5c0-1.6-1.3-2.8-2.8-3-1-.2-2-.2-2.9-.2Z"/>
  <path class="st0" d="M16.1,21.1c.6,0,1.1.5,1.1,1.1,0,.6-.5,1.1-1.1,1.1s-1.1-.5-1.1-1.1.5-1.1,1.1-1.1ZM19.3,7v2.6c0,2-1.6,3.7-3.5,3.7h-5.6c-1.5,0-2.8,1.4-2.8,3v5.5c0,1.6,1.3,2.5,2.8,3,1.8.5,3.5.6,5.6,0,1.4-.4,2.8-1.3,2.8-3v-2.2h-5.6v-.7h8.4c1.6,0,2.2-1.2,2.8-3,.6-1.8.6-3.6,0-5.9-.4-1.7-1.2-3-2.8-3h-2.1Z"/>
</svg>
